<svg width="32" height="32" viewBox="0 0 32 32" fill="none" xmlns="http://www.w3.org/2000/svg">
<path fill-rule="evenodd" clip-rule="evenodd" d="M24.4121 0.0107422C28.6389 0.225231 32 3.71994 32 8V24L31.9893 24.4121C31.7748 28.6389 28.2801 32 24 32H8C3.58172 32 0 28.4183 0 24V8C0 3.58172 3.58172 0 8 0H24L24.4121 0.0107422ZM8 1C4.13401 1 1 4.13401 1 8V24C1 27.866 4.13401 31 8 31H24C27.866 31 31 27.866 31 24V8C31 4.13401 27.866 1 24 1H8Z" fill="#2063EB"/>
<path d="M0 8C0 3.58172 3.58172 0 8 0H24C28.4183 0 32 3.58172 32 8V24C32 28.4183 28.4183 32 24 32H8C3.58172 32 0 28.4183 0 24V8Z" fill="#2063EB"/>
<path d="M15.4091 26L10.0909 8.54545H12.9091L16.6818 21.9091H16.8636L20.5909 8.54545H23.4545L27.1364 21.8636H27.3182L31.0909 8.54545L31 12V17.5L28.5909 26H25.9545L22.1364 12.5909H21.8636L18.0455 26H15.4091Z" fill="white"/>
<path d="M24 31V32H8V31H24ZM31 24V8C31 4.13401 27.866 1 24 1H8C4.13401 1 1 4.13401 1 8V24C1 27.866 4.13401 31 8 31V32C3.58172 32 0 28.4183 0 24V8C0 3.58172 3.58172 0 8 0H24L24.4121 0.0107422C28.6389 0.225231 32 3.71994 32 8V24L31.9893 24.4121C31.7748 28.6389 28.2801 32 24 32V31C27.866 31 31 27.866 31 24Z" fill="#2063EB"/>
</svg>
